<svg xmlns="http://www.w3.org/2000/svg" width="512" height="512" viewBox="0 0 512 512" role="img" aria-label="DARED icon">
  <title>DARED icon</title>
  <rect width="512" height="512" rx="96" fill="#0b1228"/>
  <g transform="translate(124.00,70.00) scale(0.37500) translate(0.000000,992.000000) scale(0.100000,-0.100000)" fill="#ffffff"><path d="M3644 9586 c-60 -27 -252 -229 -283 -299 -40 -89 -79 -100 -163 -45
-38 24 -66 33 -116 37 -67 7 -96 18 -141 52 -31 24 -91 24 -122 0 -45 -34 -88
-51 -133 -51 -63 0 -90 -13 -160 -76 -58 -54 -81 -68 -153 -94 -33 -12 -158
-128 -189 -175 -12 -18 -21 -56 -25 -99 -5 -60 -12 -80 -43 -125 -31 -45 -36
-61 -36 -110 0 -48 -6 -65 -40 -121 -22 -36 -40 -72 -40 -81 0 -53 -153 -207
-237 -238 -26 -10 -70 -32 -97 -49 -28 -18 -57 -32 -66 -32 -9 0 -38 -14 -66
-32 -27 -17 -71 -39 -99 -49 -63 -23 -139 -100 -154 -155 -6 -21 -24 -59 -41
-84 -17 -25 -35 -62 -41 -83 -12 -46 -81 -125 -126 -143 -21 -9 -74 -14 -153
-14 -80 0 -132 -5 -153 -14 -63 -26 -207 -184 -207 -226 0 -8 -18 -44 -40 -80
-34 -55 -40 -73 -40 -119 0 -46 -6 -65 -40 -122 -41 -66 -41 -66 -38 -487 3
-420 3 -420 38 -469 49 -68 55 -334 8 -395 -15 -20 -36 -57 -46 -84 -10 -27
-33 -71 -50 -98 -35 -54 -44 -134 -21 -179 6 -12 111 -123 234 -247 197 -200
223 -230 233 -271 6 -25 26 -65 44 -90 31 -42 33 -50 38 -154 5 -105 7 -113
43 -170 20 -33 37 -67 37 -76 0 -8 16 -39 35 -69 19 -30 40 -72 45 -93 7 -23
37 -66 79 -113 50 -55 72 -87 80 -119 8 -32 29 -65 72 -112 58 -64 72 -86 98
-158 6 -16 40 -61 76 -100 38 -40 67 -82 71 -100 3 -16 23 -60 45 -96 21 -36
39 -72 39 -80 0 -8 18 -43 40 -79 22 -36 40 -72 40 -80 0 -28 40 -80 129 -170
48 -49 93 -102 100 -119 6 -17 16 -45 23 -63 15 -40 237 -262 278 -277 16 -6
43 -16 58 -22 44 -16 110 -89 131 -145 10 -27 32 -71 49 -98 18 -28 32 -57 32
-65 0 -23 31 -69 89 -131 28 -30 55 -68 61 -85 6 -16 20 -47 31 -67 10 -21 28
-55 38 -75 11 -21 25 -51 31 -68 6 -16 39 -60 74 -97 46 -49 67 -80 74 -111 6
-24 26 -63 43 -87 27 -37 34 -57 39 -117 5 -61 11 -80 39 -120 29 -40 35 -60
40 -120 5 -60 12 -80 40 -120 29 -40 35 -60 40 -118 5 -57 13 -81 44 -130 20
-33 37 -68 37 -77 0 -9 16 -40 36 -69 31 -45 38 -66 44 -128 11 -103 74 -147
130 -91 48 48 43 214 -9 287 -29 40 -35 60 -40 118 -5 57 -13 81 -44 130 -20
33 -37 68 -37 77 0 9 -17 40 -37 69 -36 52 -37 57 -42 164 -6 105 -8 113 -43
170 -21 33 -38 67 -38 75 0 8 -18 44 -40 80 -22 36 -40 72 -40 80 0 8 -18 44
-40 80 -33 53 -40 74 -40 115 0 81 18 103 107 135 19 7 119 98 251 230 192
190 227 220 275 238 30 11 76 34 103 51 26 17 55 31 63 31 9 0 43 17 76 37 45
28 75 39 122 44 85 9 113 28 113 79 0 50 -27 69 -107 79 -71 8 -81 14 -99 57
-13 32 -15 33 -46 22 -51 -18 -122 -95 -137 -150 -26 -93 -109 -115 -226 -58
-87 42 -92 39 -96 -58 -4 -89 -19 -116 -70 -127 -41 -9 -76 -41 -84 -75 -10
-45 -42 -78 -86 -90 -27 -7 -63 -32 -105 -71 -70 -65 -97 -72 -149 -41 -16 10
-51 26 -77 35 -53 21 -134 100 -144 144 -12 48 -34 83 -93 147 -40 43 -61 75
-70 108 -15 53 -84 129 -133 147 -15 6 -41 16 -57 22 -63 23 -291 266 -291
309 0 8 -18 44 -40 79 -21 36 -42 77 -45 92 -8 34 -29 53 -77 68 -40 13 -78
53 -78 81 0 10 -16 42 -36 71 -32 46 -38 65 -44 131 -8 92 1 79 -170 248 -121
119 -138 141 -148 182 -9 37 -29 66 -82 124 -42 46 -71 88 -75 107 -4 18 -24
62 -46 98 -21 36 -39 72 -39 81 0 9 -16 40 -36 69 -71 104 -61 187 31 287 129
139 110 191 -74 202 -96 5 -114 9 -150 33 -23 15 -66 37 -97 48 -64 24 -191
137 -218 193 -13 27 -16 70 -16 212 0 179 0 179 38 233 56 82 58 407 3 483
-57 79 -39 148 39 148 44 0 63 -19 81 -80 11 -38 38 -70 180 -210 216 -214
219 -220 128 -265 -44 -23 -69 -49 -69 -72 0 -5 51 -7 114 -5 154 6 157 5 325
-158 79 -76 158 -144 175 -150 40 -15 81 -35 135 -65 37 -21 57 -25 128 -25
101 0 133 -12 193 -74 45 -47 45 -47 48 -187 3 -134 2 -142 -22 -189 -32 -61
-32 -83 -3 -123 20 -30 22 -45 27 -217 5 -198 12 -225 55 -236 89 -22 107 20
103 241 -3 173 -3 173 -35 217 -43 60 -48 86 -24 128 60 107 61 108 61 247 0
124 1 134 23 159 36 41 124 46 187 10 25 -14 72 -39 105 -55 79 -37 85 -52 85
-202 0 -126 8 -159 40 -159 31 0 35 18 40 206 6 204 8 211 79 232 21 7 58 25
82 42 103 70 153 34 157 -115 4 -107 4 -107 -35 -163 -38 -56 -38 -56 -41
-268 -3 -223 1 -254 38 -254 30 0 40 31 40 122 0 64 5 91 19 118 52 93 61 117
61 171 0 46 5 63 31 99 17 23 37 61 45 83 8 23 28 62 44 87 16 25 36 65 44 88
9 23 26 57 39 75 13 17 31 53 40 79 9 26 27 62 40 80 13 18 32 56 41 84 24 74
229 279 313 312 92 35 223 167 243 244 14 49 87 131 133 148 73 27 95 40 155
94 100 89 158 91 150 4 -8 -80 6 -88 146 -88 63 0 117 4 120 9 4 5 -16 53 -44
108 -45 89 -54 100 -97 123 -60 31 -67 58 -24 100 36 36 72 39 121 7 33 -21
46 -22 280 -25 260 -3 300 2 300 38 0 32 -38 40 -189 40 -203 0 -241 14 -241
85 0 45 31 66 114 74 46 5 76 15 114 40 102 65 172 56 277 -35 41 -35 93 -71
117 -80 23 -8 65 -29 92 -47 49 -31 53 -32 181 -35 168 -4 200 9 200 78 0 66
-32 80 -188 80 -138 0 -163 8 -226 74 -53 54 -61 101 -23 139 21 20 35 22 165
27 175 6 200 17 195 83 -5 66 -39 79 -203 75 -130 -3 -130 -3 -190 -40 -33
-21 -67 -38 -75 -38 -8 0 -42 -17 -75 -37 -60 -38 -60 -38 -231 -41 -156 -3
-172 -2 -194 16 -30 24 -19 42 49 77 91 46 145 127 116 171 -23 36 -63 24
-120 -36 -80 -84 -175 -77 -175 14 0 38 33 82 138 186 71 70 92 106 92 153 0
31 6 44 31 65 34 30 99 161 99 199 0 30 -51 83 -79 83 -43 0 -51 -24 -51 -151
0 -132 -6 -146 -76 -175 -80 -34 -84 -23 -84 227 0 254 -8 279 -86 279 -65 0
-83 -77 -34 -150 35 -53 39 -105 11 -141 -38 -50 -45 -76 -51 -185 -5 -101 -8
-114 -33 -147 -15 -20 -35 -56 -43 -79 -36 -103 -109 -163 -145 -120 -19 24
-17 43 12 99 28 55 0 93 -57 79 -19 -5 -33 -23 -55 -69 -16 -34 -40 -82 -54
-106 -22 -38 -25 -57 -25 -135 0 -103 -5 -114 -89 -206 -28 -30 -58 -75 -67
-100 -33 -87 -26 -84 -277 -90 -206 -5 -225 -7 -264 -27 -53 -29 -73 -29 -126
-1 -31 16 -67 23 -142 28 -93 5 -104 8 -160 43 -33 20 -68 37 -76 37 -27 0
-67 38 -74 70 -4 17 -23 54 -43 83 -38 55 -55 171 -37 265 11 61 524 571 621
617 80 38 90 53 97 145 3 43 12 67 40 109 21 29 37 60 37 70 0 9 18 45 40 81
22 36 40 72 40 81 0 33 65 110 235 277 196 193 211 202 322 202 62 0 89 5 131
25 65 30 83 31 131 6 20 -10 61 -30 91 -45 68 -31 578 -538 598 -593 7 -18 17
-47 24 -64 7 -19 102 -122 228 -248 129 -130 221 -230 228 -249 7 -18 17 -46
24 -63 6 -17 66 -86 133 -153 124 -122 175 -186 175 -215 0 -9 18 -45 40 -81
22 -36 40 -72 40 -80 0 -8 18 -44 40 -80 40 -65 40 -65 40 -240 0 -175 0 -175
-40 -240 -39 -64 -40 -66 -40 -161 0 -95 -1 -98 -36 -150 -31 -45 -38 -65 -43
-124 -5 -56 -13 -81 -38 -121 -18 -27 -39 -68 -47 -91 -8 -23 -27 -60 -42 -83
-21 -32 -30 -60 -35 -111 -5 -56 -12 -77 -42 -121 -33 -47 -37 -60 -37 -113 0
-52 -5 -68 -40 -125 -22 -36 -40 -72 -40 -80 0 -8 -18 -44 -40 -80 -34 -55
-40 -73 -40 -120 0 -47 -6 -65 -40 -120 -22 -36 -40 -72 -40 -80 0 -8 -18 -44
-40 -80 -39 -64 -40 -67 -40 -160 0 -93 -1 -96 -40 -160 -39 -64 -40 -67 -40
-160 0 -93 -1 -96 -40 -160 -39 -64 -40 -67 -40 -158 0 -108 -9 -130 -73 -189
-45 -41 -58 -46 -155 -57 -24 -2 -63 -18 -92 -36 -27 -17 -65 -36 -84 -41 -20
-5 -71 -40 -115 -79 -44 -37 -97 -74 -118 -80 -21 -7 -58 -25 -83 -41 -25 -16
-64 -35 -87 -43 -23 -8 -60 -27 -83 -42 -32 -21 -60 -30 -111 -35 -52 -4 -79
-13 -116 -37 -27 -17 -67 -38 -90 -46 -23 -8 -59 -27 -82 -41 -29 -20 -60 -29
-110 -35 -54 -6 -82 -15 -121 -40 -38 -25 -67 -34 -120 -40 -87 -10 -86 -9
-248 -168 -74 -72 -148 -135 -165 -142 -18 -6 -49 -20 -69 -31 -74 -38 -114
-57 -148 -73 -19 -9 -55 -27 -79 -41 -37 -21 -57 -25 -128 -25 -100 0 -133
-13 -190 -72 -87 -89 -61 -154 65 -168 54 -6 83 -15 120 -39 63 -40 103 -40
162 -1 25 17 62 35 83 41 22 6 64 34 103 69 35 32 80 64 98 70 23 7 38 21 47
42 9 23 27 37 73 58 34 15 89 53 122 83 39 36 82 64 118 78 39 14 78 40 120
80 94 88 160 102 250 54 79 -42 102 -27 108 75 6 111 77 178 200 192 48 5 82
15 107 31 55 36 191 97 217 97 13 0 38 -9 56 -20 46 -28 85 -25 138 10 25 17
62 35 82 40 22 6 71 39 118 80 47 41 96 74 118 80 20 5 57 23 82 40 90 60 193
10 239 -115 10 -27 32 -72 49 -99 26 -41 32 -60 32 -105 0 -48 6 -66 40 -121
22 -36 40 -72 40 -80 0 -8 18 -44 40 -80 22 -36 40 -72 40 -80 0 -8 18 -44 40
-80 34 -55 40 -73 40 -120 0 -47 6 -65 40 -120 22 -36 40 -72 40 -80 0 -8 18
-44 40 -80 33 -54 40 -74 41 -120 1 -70 4 -79 60 -137 56 -58 99 -120 99 -142
0 -9 18 -45 40 -81 22 -36 40 -72 40 -80 0 -8 18 -44 40 -80 34 -55 40 -73 40
-120 0 -47 6 -65 40 -120 22 -36 40 -72 40 -80 0 -8 18 -44 40 -80 22 -36 40
-72 40 -80 0 -58 176 -230 234 -230 71 0 81 20 84 180 4 141 4 141 -37 209
-23 37 -41 74 -41 82 0 8 -18 43 -40 79 -22 36 -40 72 -40 80 0 28 -42 85
-115 156 -78 75 -125 137 -125 163 0 9 -18 45 -40 81 -39 64 -40 67 -40 160 0
93 -1 96 -40 160 -22 36 -40 72 -40 80 0 8 -18 44 -40 80 -22 36 -40 72 -40
80 0 8 -18 44 -40 80 -22 36 -40 72 -40 80 0 8 -18 44 -40 80 -22 36 -40 72
-40 80 0 8 -18 44 -40 80 -34 55 -40 73 -40 120 0 47 -6 65 -40 120 -22 36
-40 72 -40 80 0 8 -18 44 -40 80 -40 65 -40 65 -40 400 0 335 0 335 40 400 40
65 40 65 40 240 0 175 0 175 40 240 40 65 40 65 40 200 0 135 0 135 40 200 34
55 40 73 40 120 0 47 6 65 40 120 34 55 40 73 40 120 0 47 6 65 40 120 22 36
40 72 40 80 0 8 18 44 40 80 34 55 40 73 40 120 0 47 6 65 40 120 34 55 40 73
40 120 0 47 6 65 40 120 34 55 40 73 40 120 0 47 6 65 40 120 34 55 40 73 40
120 0 47 6 65 40 120 34 55 40 73 40 120 0 47 -6 65 -40 120 -22 36 -40 72
-40 80 0 8 -18 44 -40 80 -22 36 -40 72 -40 80 0 8 -18 44 -40 80 -22 36 -40
72 -40 80 0 8 -18 44 -40 80 -22 36 -40 72 -40 80 0 22 -31 68 -89 130 -28 30
-58 75 -68 100 -22 60 -39 78 -84 90 -51 14 -68 29 -472 431 -331 330 -351
348 -410 369 -85 31 -217 160 -236 232 -15 55 -29 68 -92 92 -80 29 -229 183
-229 235 0 9 -18 45 -40 80 -21 36 -42 77 -45 93 -7 30 -48 68 -74 68 -10 0
-39 14 -66 31 -28 17 -68 38 -89 46 -22 7 -63 28 -90 46 -50 32 -50 32 -266
34 -166 2 -222 0 -246 -11z m431 -182 c28 -18 68 -37 89 -44 44 -14 120 -79
142 -123 31 -60 -49 -167 -152 -201 -42 -14 -79 -45 -266 -231 -135 -134 -225
-215 -237 -215 -36 0 -51 27 -51 90 0 51 -5 65 -37 111 -38 54 -38 54 -41 196
-4 162 -3 164 82 258 31 33 60 74 66 90 37 102 47 106 220 103 133 -3 137 -4
185 -34z m-920 -298 c42 -18 180 -152 195 -190 5 -15 10 -51 10 -81 0 -45 6
-61 38 -106 37 -54 37 -54 37 -329 0 -275 0 -275 -37 -329 -21 -29 -38 -61
-38 -71 0 -31 -39 -68 -88 -84 -38 -13 -75 -44 -189 -155 -155 -151 -181 -167
-266 -158 -71 6 -97 37 -97 115 0 49 -6 66 -40 122 -22 36 -40 72 -40 80 0 31
-45 85 -206 247 -211 213 -217 227 -147 320 26 34 28 45 33 154 6 129 1 119
92 213 26 27 55 70 64 95 22 60 39 78 83 92 20 6 56 24 81 39 64 40 56 38 278
39 154 1 211 -2 237 -13z m-1073 -1067 c36 -23 66 -33 117 -39 80 -9 77 -7
159 -79 65 -57 122 -132 122 -160 0 -9 18 -45 40 -81 22 -36 40 -72 40 -80 0
-8 18 -44 40 -80 22 -36 40 -72 40 -81 0 -10 17 -41 38 -70 37 -54 37 -54 42
-404 6 -393 -2 -355 89 -455 28 -30 55 -67 61 -82 5 -16 15 -40 20 -55 6 -16
33 -53 61 -83 85 -93 89 -103 89 -210 0 -113 -9 -133 -109 -229 -88 -85 -105
-91 -251 -91 -157 0 -158 0 -326 166 -141 138 -194 202 -194 233 0 9 -18 45
-40 81 -34 55 -40 73 -40 120 0 47 -6 65 -40 120 -22 36 -40 72 -40 81 0 31
-60 106 -161 199 -140 131 -159 158 -159 231 0 73 -9 97 -57 147 -100 104 -95
95 -103 179 -6 66 -12 85 -40 125 -43 61 -43 95 0 156 28 40 34 59 40 121 6
77 35 121 79 121 9 0 41 16 71 35 30 19 72 40 93 45 22 7 71 40 118 80 96 83
123 89 201 39z m-856 -769 c70 -27 195 -163 215 -235 7 -23 36 -64 78 -109 45
-50 71 -87 80 -117 7 -24 28 -69 47 -99 19 -31 34 -62 34 -70 1 -24 21 -54 80
-121 73 -82 79 -95 80 -159 0 -46 6 -65 40 -120 22 -36 40 -72 40 -80 0 -8 18
-44 40 -80 50 -81 59 -224 19 -290 -30 -48 -147 -160 -186 -176 -45 -20 -262
-19 -308 1 -22 9 -175 153 -410 387 -316 314 -383 376 -423 391 -84 31 -94 52
-90 176 4 104 4 107 41 160 32 46 37 61 37 110 0 64 12 87 89 171 28 30 58 75
67 100 18 50 55 90 83 90 9 0 39 14 66 31 27 17 58 35 70 39 29 12 179 12 211
0z"/><path d="M2497 8512 c-38 -42 -12 -162 34 -162 32 0 79 53 79 90 0 63 -77 112
-113 72z"/><path d="M1914 6999 c9 -55 23 -79 46 -79 46 0 45 71 -2 104 -40 28 -51 21
-44 -25z"/><path d="M3696 7948 c-13 -18 -16 -54 -16 -190 0 -196 -1 -198 -84 -287 -65
-69 -69 -77 -81 -143 -3 -21 -7 -38 -8 -39 -1 0 -41 -4 -89 -8 -102 -9 -128
-25 -128 -78 0 -113 147 -87 211 39 12 23 32 43 52 51 38 16 256 235 274 275
21 47 16 269 -7 319 -31 69 -96 101 -124 61z"/><path d="M4740 6222 c0 -41 65 -67 90 -36 18 21 -5 43 -53 51 -33 5 -37 3 -37
-15z"/><path d="M5754 6188 c-58 -54 -74 -85 -74 -147 0 -74 -11 -93 -110 -192 -125
-124 -130 -133 -130 -249 0 -93 -1 -96 -40 -160 -22 -36 -40 -71 -40 -78 0
-26 -33 -76 -91 -138 -88 -95 -80 -174 19 -174 52 0 295 233 307 294 4 17 22
57 41 88 19 31 41 75 49 98 8 22 25 55 38 73 14 17 30 50 37 72 7 22 26 62 44
90 29 46 31 58 36 160 5 108 6 111 43 164 81 116 -24 196 -129 99z"/><path d="M3642 5508 c-96 -46 -124 -138 -42 -138 44 0 68 25 80 85 15 73 13
77 -38 53z"/><path d="M1011 5440 c-72 -6 -131 -42 -131 -79 0 -8 122 -5 168 5 46 9 96 86
55 83 -10 -1 -51 -5 -92 -9z"/><path d="M3452 5228 c-16 -16 -16 -178 -1 -212 7 -13 25 -30 40 -37 29 -11 29
-12 29 -96 0 -92 10 -123 40 -123 30 0 40 31 40 125 0 81 1 86 24 95 67 25 80
180 16 180 -29 0 -40 -31 -40 -115 0 -76 0 -76 -37 -73 -38 3 -38 3 -43 123
-6 142 -24 177 -68 133z"/><path d="M5210 4661 c-5 -11 -10 -35 -10 -54 0 -28 -7 -41 -36 -64 -30 -24
-37 -37 -41 -78 -5 -38 -14 -59 -40 -88 -38 -42 -36 -52 7 -62 26 -6 30 -11
30 -41 0 -45 16 -74 40 -74 48 0 42 69 -10 98 -43 25 -44 88 -1 117 35 23 51
54 51 100 0 26 7 38 31 55 37 27 53 64 39 91 -14 25 -46 25 -60 0z"/><path d="M1419 4421 c-34 -35 -37 -67 -9 -113 10 -18 26 -53 34 -76 8 -23 26
-57 40 -75 13 -17 29 -50 35 -72 6 -22 27 -65 46 -95 19 -30 35 -62 35 -71 0
-27 48 -90 134 -175 46 -44 88 -95 95 -115 23 -62 36 -83 61 -96 14 -6 49 -23
77 -37 84 -41 113 -24 113 67 0 59 -9 76 -77 151 -52 56 -65 78 -94 154 -7 19
-58 80 -114 136 -86 87 -104 110 -114 150 -9 35 -28 64 -80 121 -38 40 -72 86
-75 102 -19 76 -58 92 -107 44z"/><path d="M4930 4302 c-30 -15 -37 -25 -51 -76 -15 -60 -15 -60 -70 -71 -30 -6
-68 -20 -84 -31 -17 -12 -51 -31 -77 -42 -96 -42 -55 -82 84 -82 81 0 81 0 75
-30 -12 -60 79 -66 127 -9 38 44 33 48 -44 42 -83 -7 -83 -6 -43 91 21 52 32
67 55 75 48 17 85 49 107 93 29 60 -5 77 -79 40z"/><path d="M3170 4143 c-70 -36 -54 -108 32 -145 69 -30 78 -51 78 -198 0 -127
8 -160 40 -160 37 0 41 31 38 255 -3 202 -4 216 -24 235 -30 30 -118 37 -164
13z"/><path d="M4676 3884 c-34 -35 -33 -44 4 -44 43 0 90 26 90 50 0 31 -60 27 -94
-6z"/><path d="M2910 3812 c-18 -15 -24 -33 -30 -95 -8 -82 -8 -83 -90 -169 -63 -68
-73 -91 -68 -161 5 -70 29 -97 85 -97 44 0 138 85 148 133 4 18 23 59 43 92
54 88 60 247 12 295 -25 25 -71 26 -100 2z"/><path d="M4425 3761 c-125 -7 -175 -28 -175 -76 0 -4 57 -5 126 -3 126 3 126
3 155 36 31 34 37 53 17 50 -7 -1 -62 -4 -123 -7z"/><path d="M3743 3750 c-32 -13 -30 -48 3 -60 57 -22 124 -6 124 30 0 35 -72 52
-127 30z"/><path d="M4062 3741 c-24 -14 -9 -45 26 -55 50 -14 66 8 29 40 -31 26 -36 28
-55 15z"/><path d="M3151 3412 c-27 -26 -52 -115 -37 -130 25 -25 82 43 91 111 9 57 -10
64 -54 19z"/><path d="M5290 3220 c-14 -26 3 -60 30 -60 11 0 24 9 30 20 14 26 -3 60 -30
60 -11 0 -24 -9 -30 -20z"/><path d="M3007 3189 c-70 -36 -183 -163 -171 -193 30 -78 180 23 204 138 15
73 12 78 -33 55z"/><path d="M5696 2098 c-9 -12 -16 -41 -16 -64 0 -36 -4 -43 -29 -53 -53 -23
-62 -101 -11 -101 25 0 40 29 40 74 0 34 2 36 34 36 47 0 59 18 47 70 -14 61
-39 76 -65 38z"/><path d="M4010 1460 c-14 -26 3 -60 30 -60 27 0 44 34 30 60 -6 11 -19 20 -30
20 -11 0 -24 -9 -30 -20z"/><path d="M4250 900 c-14 -26 3 -60 30 -60 27 0 44 34 30 60 -6 11 -19 20 -30
20 -11 0 -24 -9 -30 -20z"/></g>
</svg>